<svg xmlns="http://www.w3.org/2000/svg" xmlns:xlink="http://www.w3.org/1999/xlink" width="800" zoomAndPan="magnify" viewBox="0 0 600 374.999991" height="500" preserveAspectRatio="xMidYMid meet" version="1.0"><defs><g/><clipPath id="12341eb4ea"><path d="M 271 142.609375 L 292 142.609375 L 292 161 L 271 161 Z M 271 142.609375 " clip-rule="nonzero"/></clipPath><clipPath id="ef198a7063"><path d="M 267.929688 155 L 283 155 L 283 179 L 267.929688 179 Z M 267.929688 155 " clip-rule="nonzero"/></clipPath><clipPath id="104b1fb43b"><path d="M 302 155 L 317.429688 155 L 317.429688 179 L 302 179 Z M 302 155 " clip-rule="nonzero"/></clipPath><clipPath id="1025aa789d"><path d="M 293 142.609375 L 314 142.609375 L 314 161 L 293 161 Z M 293 142.609375 " clip-rule="nonzero"/></clipPath><clipPath id="44c1fca739"><path d="M 206.710938 103.640625 L 439.960938 103.640625 L 439.960938 271.640625 L 206.710938 271.640625 Z M 206.710938 103.640625 " clip-rule="nonzero"/></clipPath></defs><rect x="-60" width="720" fill="#ffffff" y="-37.499999" height="449.999989" fill-opacity="1"/><rect x="-60" width="720" fill="#ffffff" y="-37.499999" height="449.999989" fill-opacity="1"/><g clip-path="url(#12341eb4ea)"><path fill="#5271ff" d="M 271.875 153.824219 C 276.050781 147.382812 283.15625 143.019531 291.300781 142.613281 L 291.300781 156.136719 C 288.144531 156.484375 285.386719 158.160156 283.589844 160.585938 Z M 271.875 153.824219 " fill-opacity="1" fill-rule="evenodd"/></g><g clip-path="url(#ef198a7063)"><path fill="#5ce1e6" d="M 270.628906 178.410156 C 268.90625 175.046875 267.929688 171.234375 267.929688 167.195312 C 267.929688 163.15625 268.90625 159.34375 270.628906 155.980469 L 282.34375 162.742188 C 281.746094 164.109375 281.414062 165.609375 281.414062 167.195312 C 281.414062 168.78125 281.746094 170.285156 282.34375 171.648438 Z M 270.628906 178.410156 " fill-opacity="1" fill-rule="evenodd"/></g><path fill="#0097b2" d="M 291.300781 191.777344 C 283.15625 191.371094 276.054688 187.007812 271.878906 180.566406 L 283.589844 173.804688 C 285.386719 176.230469 288.144531 177.90625 291.300781 178.253906 Z M 291.300781 191.777344 " fill-opacity="1" fill-rule="evenodd"/><path fill="#0097b2" d="M 313.214844 180.566406 C 309.039062 187.007812 301.9375 191.371094 293.792969 191.777344 L 293.792969 178.253906 C 296.949219 177.90625 299.707031 176.230469 301.503906 173.804688 Z M 313.214844 180.566406 " fill-opacity="1" fill-rule="evenodd"/><g clip-path="url(#104b1fb43b)"><path fill="#004aad" d="M 314.460938 155.980469 C 316.183594 159.34375 317.160156 163.15625 317.160156 167.195312 C 317.160156 171.234375 316.1875 175.046875 314.460938 178.410156 L 302.75 171.648438 C 303.347656 170.285156 303.675781 168.78125 303.675781 167.195312 C 303.675781 165.609375 303.347656 164.109375 302.75 162.742188 Z M 314.460938 155.980469 " fill-opacity="1" fill-rule="evenodd"/></g><g clip-path="url(#1025aa789d)"><path fill="#ffae3c" d="M 293.792969 142.613281 C 301.9375 143.019531 309.039062 147.382812 313.214844 153.824219 L 301.503906 160.585938 C 299.707031 158.160156 296.949219 156.484375 293.792969 156.136719 Z M 293.792969 142.613281 " fill-opacity="1" fill-rule="evenodd"/></g><g clip-path="url(#44c1fca739)"><path fill="#ffde59" d="M 439.644531 134.632812 L 436.5625 103.671875 L 411.285156 121.820312 L 421.144531 126.289062 L 376.722656 219.769531 L 355.394531 180.128906 L 323.714844 242.664062 L 302.148438 212.625 L 283.425781 232.046875 L 254.898438 194.972656 L 206.710938 266.609375 L 213.707031 271.320312 L 255.363281 209.394531 L 282.707031 244.933594 L 301.207031 225.75 L 324.96875 258.855469 L 355.617188 198.351562 L 377.183594 238.433594 L 428.824219 129.761719 Z M 439.644531 134.632812 " fill-opacity="1" fill-rule="nonzero"/></g><g fill="#004aad" fill-opacity="1"><g transform="translate(110.567291, 185.609637)"><g><path d="M 12.40625 -25.59375 L 12.40625 0 L 3 0 L 3 -41.25 L 12.40625 -41.25 L 28.796875 -15.65625 L 28.90625 -15.65625 L 28.90625 -41.25 L 38.296875 -41.25 L 38.296875 0 L 28.90625 0 L 12.5 -25.59375 Z M 12.40625 -25.59375 "/></g></g></g><g fill="#004aad" fill-opacity="1"><g transform="translate(155.610905, 185.609637)"><g><path d="M 26.59375 -41.25 L 26.59375 -33 L 12.40625 -33 L 12.40625 -24.796875 L 26 -24.796875 L 26 -16.546875 L 12.40625 -16.546875 L 12.40625 -8.25 L 26.59375 -8.25 L 26.59375 0 L 3 0 L 3 -41.25 Z M 26.59375 -41.25 "/></g></g></g><g fill="#004aad" fill-opacity="1"><g transform="translate(188.356423, 185.609637)"><g><path d="M 34.703125 -41.25 L 34.703125 -14.65625 C 34.703125 -9.582031 33.332031 -5.742188 30.59375 -3.140625 C 27.863281 -0.546875 23.863281 0.75 18.59375 0.75 C 13.332031 0.75 9.332031 -0.546875 6.59375 -3.140625 C 3.863281 -5.742188 2.5 -9.582031 2.5 -14.65625 L 2.5 -41.25 L 11.90625 -41.25 L 11.90625 -17.40625 C 11.90625 -14.070312 12.425781 -11.753906 13.46875 -10.453125 C 14.519531 -9.148438 16.226562 -8.5 18.59375 -8.5 C 20.96875 -8.5 22.675781 -9.148438 23.71875 -10.453125 C 24.769531 -11.753906 25.296875 -14.070312 25.296875 -17.40625 L 25.296875 -41.25 Z M 34.703125 -41.25 "/></g></g></g><g fill="#004aad" fill-opacity="1"><g transform="translate(229.300675, 185.609637)"><g><path d="M 3 -41.25 L 17.75 -41.25 C 21.71875 -41.25 24.953125 -40.191406 27.453125 -38.078125 C 29.953125 -35.960938 31.203125 -32.9375 31.203125 -29 C 31.203125 -25.96875 30.441406 -23.425781 28.921875 -21.375 C 27.410156 -19.320312 25.351562 -17.878906 22.75 -17.046875 L 36.953125 0 L 25 0 L 12.40625 -16.296875 L 12.40625 0 L 3 0 Z M 12.40625 -22.953125 L 13.5 -22.953125 C 14.363281 -22.953125 15.09375 -22.96875 15.6875 -23 C 16.289062 -23.03125 16.976562 -23.144531 17.75 -23.34375 C 18.519531 -23.550781 19.132812 -23.835938 19.59375 -24.203125 C 20.0625 -24.566406 20.460938 -25.097656 20.796875 -25.796875 C 21.128906 -26.492188 21.296875 -27.34375 21.296875 -28.34375 C 21.296875 -29.34375 21.128906 -30.191406 20.796875 -30.890625 C 20.460938 -31.597656 20.0625 -32.132812 19.59375 -32.5 C 19.132812 -32.863281 18.519531 -33.144531 17.75 -33.34375 C 16.976562 -33.550781 16.289062 -33.671875 15.6875 -33.703125 C 15.09375 -33.734375 14.363281 -33.75 13.5 -33.75 L 12.40625 -33.75 Z M 12.40625 -22.953125 "/></g></g></g><g fill="#004aad" fill-opacity="1"><g transform="translate(321.469059, 185.609637)"><g><path d="M 0.40625 -33 L 0.40625 -41.25 L 29.40625 -41.25 L 29.40625 -33 L 19.59375 -33 L 19.59375 0 L 10.203125 0 L 10.203125 -33 Z M 0.40625 -33 "/></g></g></g><g fill="#004aad" fill-opacity="1"><g transform="translate(355.014451, 185.609637)"><g><path d="M 3 -41.25 L 17.75 -41.25 C 21.71875 -41.25 24.953125 -40.191406 27.453125 -38.078125 C 29.953125 -35.960938 31.203125 -32.9375 31.203125 -29 C 31.203125 -25.96875 30.441406 -23.425781 28.921875 -21.375 C 27.410156 -19.320312 25.351562 -17.878906 22.75 -17.046875 L 36.953125 0 L 25 0 L 12.40625 -16.296875 L 12.40625 0 L 3 0 Z M 12.40625 -22.953125 L 13.5 -22.953125 C 14.363281 -22.953125 15.09375 -22.96875 15.6875 -23 C 16.289062 -23.03125 16.976562 -23.144531 17.75 -23.34375 C 18.519531 -23.550781 19.132812 -23.835938 19.59375 -24.203125 C 20.0625 -24.566406 20.460938 -25.097656 20.796875 -25.796875 C 21.128906 -26.492188 21.296875 -27.34375 21.296875 -28.34375 C 21.296875 -29.34375 21.128906 -30.191406 20.796875 -30.890625 C 20.460938 -31.597656 20.0625 -32.132812 19.59375 -32.5 C 19.132812 -32.863281 18.519531 -33.144531 17.75 -33.34375 C 16.976562 -33.550781 16.289062 -33.671875 15.6875 -33.703125 C 15.09375 -33.734375 14.363281 -33.75 13.5 -33.75 L 12.40625 -33.75 Z M 12.40625 -22.953125 "/></g></g></g><g fill="#004aad" fill-opacity="1"><g transform="translate(394.558916, 185.609637)"><g><path d="M 23.953125 -41.25 L 40.59375 0 L 30.5 0 L 27.453125 -8.25 L 11.75 -8.25 L 8.703125 0 L -1.40625 0 L 15.25 -41.25 Z M 24.25 -16.5 L 19.65625 -28.5 L 19.546875 -28.5 L 14.953125 -16.5 Z M 24.25 -16.5 "/></g></g></g><g fill="#004aad" fill-opacity="1"><g transform="translate(437.50285, 185.609637)"><g><path d="M 24.953125 -8.5 C 26.378906 -8.5 27.769531 -8.710938 29.125 -9.140625 C 30.476562 -9.578125 31.46875 -10 32.09375 -10.40625 L 33.046875 -11.046875 L 37.046875 -3.046875 C 36.910156 -2.953125 36.726562 -2.820312 36.5 -2.65625 C 36.269531 -2.488281 35.726562 -2.175781 34.875 -1.71875 C 34.019531 -1.269531 33.109375 -0.878906 32.140625 -0.546875 C 31.179688 -0.210938 29.914062 0.0820312 28.34375 0.34375 C 26.78125 0.613281 25.164062 0.75 23.5 0.75 C 19.664062 0.75 16.03125 -0.191406 12.59375 -2.078125 C 9.164062 -3.960938 6.398438 -6.550781 4.296875 -9.84375 C 2.203125 -13.144531 1.15625 -16.710938 1.15625 -20.546875 C 1.15625 -23.453125 1.769531 -26.238281 3 -28.90625 C 4.226562 -31.570312 5.867188 -33.851562 7.921875 -35.75 C 9.972656 -37.644531 12.363281 -39.160156 15.09375 -40.296875 C 17.832031 -41.429688 20.632812 -42 23.5 -42 C 26.164062 -42 28.625 -41.679688 30.875 -41.046875 C 33.125 -40.410156 34.71875 -39.78125 35.65625 -39.15625 L 37.046875 -38.203125 L 33.046875 -30.203125 C 32.816406 -30.398438 32.46875 -30.640625 32 -30.921875 C 31.53125 -31.203125 30.59375 -31.578125 29.1875 -32.046875 C 27.789062 -32.515625 26.378906 -32.75 24.953125 -32.75 C 22.679688 -32.75 20.644531 -32.378906 18.84375 -31.640625 C 17.050781 -30.910156 15.628906 -29.945312 14.578125 -28.75 C 13.523438 -27.550781 12.722656 -26.257812 12.171875 -24.875 C 11.617188 -23.488281 11.34375 -22.082031 11.34375 -20.65625 C 11.34375 -17.519531 12.519531 -14.707031 14.875 -12.21875 C 17.226562 -9.738281 20.585938 -8.5 24.953125 -8.5 Z M 24.953125 -8.5 "/></g></g></g><g fill="#004aad" fill-opacity="1"><g transform="translate(478.89702, 185.609637)"><g><path d="M 40.546875 0 L 27.59375 0 L 12.40625 -17.5 L 12.40625 0 L 3 0 L 3 -41.25 L 12.40625 -41.25 L 12.40625 -24.40625 L 26.546875 -41.25 L 37.953125 -41.25 L 21.34375 -21.703125 Z M 40.546875 0 "/></g></g></g></svg>